<svg width="600" height="250" xmlns="http://www.w3.org/2000/svg"> <!-- 1番目: 左向き◀ --> <circle cx="60" cy="60" r="40" fill="#ddd"/> <text x="60" y="120" text-anchor="middle" font-size="12">アイコン</text> <rect x="120" y="30" width="150" height="60" rx="10" fill="#e9f1fb"/> <polygon points="120,50 100,60 120,70" fill="#e9f1fb"/> <text x="195" y="50" text-anchor="middle" font-size="11" fill="#333">吹き出し</text> <text x="195" y="70" text-anchor="middle" font-size="11" fill="#333">テキスト</text> <text x="195" y="5" text-anchor="middle" font-size="14" fill="#f00">左向き◀（現状）</text> <!-- 2番目: 右向き▶ --> <rect x="330" y="30" width="150" height="60" rx="10" fill="#e9f1fb"/> <polygon points="480,50 500,60 480,70" fill="#e9f1fb"/> <circle cx="540" cy="60" r="40" fill="#ddd"/> <text x="540" y="120" text-anchor="middle" font-size="12">アイコン</text> <text x="405" y="50" text-anchor="middle" font-size="11" fill="#333">吹き出し</text> <text x="405" y="70" text-anchor="middle" font-size="11" fill="#333">テキスト</text> <text x="405" y="5" text-anchor="middle" font-size="14" fill="#f00">右向き▶（.right_speech）</text> <!-- 3番目: 左向き◀ --> <circle cx="60" cy="190" r="40" fill="#ddd"/> <text x="60" y="245" text-anchor="middle" font-size="12">アイコン</text> <rect x="120" y="160" width="150" height="60" rx="10" fill="#e9f1fb"/> <polygon points="120,180 100,190 120,200" fill="#e9f1fb"/> <text x="195" y="180" text-anchor="middle" font-size="11" fill="#333">吹き出し</text> <text x="195" y="200" text-anchor="middle" font-size="11" fill="#333">テキスト</text> <text x="195" y="135" text-anchor="middle" font-size="14" fill="#f00">左向き◀（現状）</text> </svg>
✅ 修正後（デザイン通り）
<svg width="600" height="150" xmlns="http://www.w3.org/2000/svg"> <!-- 全部 上向き▲ --> <g> <circle cx="80" cy="100" r="40" fill="#ddd"/> <text x="80" y="60" text-anchor="middle" font-size="10">○○○さん</text> <text x="80" y="75" text-anchor="middle" font-size="9">大学生</text> <rect x="30" y="10" width="100" height="40" rx="10" fill="#e9f1fb"/> <polygon points="70,50 80,60 90,50" fill="#e9f1fb"/> <text x="80" y="35" text-anchor="middle" font-size="9" fill="#333">吹き出し</text> </g> <g> <circle cx="280" cy="100" r="40" fill="#ddd"/> <text x="280" y="60" text-anchor="middle" font-size="10">○○○さん</text> <text x="280" y="75" text-anchor="middle" font-size="9">会社員</text> <rect x="230" y="10" width="100" height="40" rx="10" fill="#e9f1fb"/> <polygon points="270,50 280,60 290,50" fill="#e9f1fb"/> <text x="280" y="35" text-anchor="middle" font-size="9" fill="#333">吹き出し</text> </g> <g> <circle cx="480" cy="100" r="40" fill="#ddd"/> <text x="480" y="60" text-anchor="middle" font-size="10">○○○さん</text> <text x="480" y="75" text-anchor="middle" font-size="9">自営業</text> <rect x="430" y="10" width="100" height="40" rx="10" fill="#e9f1fb"/> <polygon points="470,50 480,60 490,50" fill="#e9f1fb"/> <text x="480" y="35" text-anchor="middle" font-size="9" fill="#333">吹き出し</text> </g>
<text x="300" y="135" text-anchor="middle" font-size="16" fill="#0a0" font-weight="bold">全部 上向き▲（正解）</text>
</svg>