<svg viewBox="0 0 800 600" xmlns="http://www.w3.org/2000/svg">
  <!-- タイトル -->
  <text x="400" y="30" font-size="24" font-weight="bold" text-anchor="middle" fill="#333">
    CSS transition の仕組み
  </text>
  
  <!-- CSS設定部分 -->
  <rect x="50" y="60" width="700" height="80" fill="#e3f2fd" stroke="#1976d2" stroke-width="2" rx="5"/>
  <text x="400" y="85" font-size="16" font-weight="bold" text-anchor="middle" fill="#1976d2">
    CSS: transition: width 0.5s ease;
  </text>
  <text x="150" y="115" font-size="14" fill="#555">
    width → 対象プロパティ
  </text>
  <text x="400" y="115" font-size="14" fill="#555">
    0.5s → 時間
  </text>
  <text x="600" y="115" font-size="14" fill="#555">
    ease → 動き方
  </text>
  
  <!-- 矢印 -->
  <path d="M 400 140 L 400 170" stroke="#666" stroke-width="2" fill="none" marker-end="url(#arrowhead)"/>
  
  <!-- transitionなしの場合 -->
  <g>
    <text x="180" y="200" font-size="18" font-weight="bold" fill="#d32f2f">
      ❌ transition なし
    </text>
    
    <!-- 変化前 -->
    <rect x="60" y="220" width="200" height="60" fill="#ffcdd2" stroke="#d32f2f" stroke-width="2"/>
    <text x="160" y="255" font-size="14" text-anchor="middle" fill="#333">width: 33%</text>
    
    <!-- 瞬時変化の矢印 -->
    <path d="M 270 250 L 350 250" stroke="#d32f2f" stroke-width="3" fill="none" marker-end="url(#arrowhead-red)"/>
    <text x="310" y="240" font-size="12" fill="#d32f2f" font-weight="bold">瞬時</text>
    
    <!-- 変化後 -->
    <rect x="360" y="220" width="300" height="60" fill="#f44336" stroke="#d32f2f" stroke-width="2"/>
    <text x="510" y="255" font-size="14" text-anchor="middle" fill="#fff">width: 50%</text>
  </g>
  
  <!-- transitionありの場合 -->
  <g>
    <text x="180" y="340" font-size="18" font-weight="bold" fill="#2e7d32">
      ✓ transition あり
    </text>
    
    <!-- 変化前 -->
    <rect x="60" y="360" width="200" height="60" fill="#c8e6c9" stroke="#2e7d32" stroke-width="2"/>
    <text x="160" y="395" font-size="14" text-anchor="middle" fill="#333">width: 33%</text>
    
    <!-- なめらかな変化の表現 -->
    <rect x="270" y="360" width="220" height="60" fill="#a5d6a7" stroke="#2e7d32" stroke-width="2"/>
    <text x="380" y="395" font-size="14" text-anchor="middle" fill="#333">0.5秒かけて</text>
    
    <!-- 変化の段階を示す -->
    <rect x="275" y="365" width="40" height="50" fill="#81c784" opacity="0.3"/>
    <rect x="320" y="365" width="50" height="50" fill="#66bb6a" opacity="0.4"/>
    <rect x="375" y="365" width="60" height="50" fill="#4caf50" opacity="0.5"/>
    <rect x="440" y="365" width="45" height="50" fill="#43a047" opacity="0.6"/>
    
    <!-- 変化後 -->
    <rect x="500" y="360" width="300" height="60" fill="#4caf50" stroke="#2e7d32" stroke-width="2"/>
    <text x="650" y="395" font-size="14" text-anchor="middle" fill="#fff">width: 50%</text>
  </g>
  
  <!-- easeの動き方グラフ -->
  <g>
    <text x="400" y="470" font-size="16" font-weight="bold" text-anchor="middle" fill="#333">
      ease の動き方（速度変化）
    </text>
    
    <!-- グラフ背景 -->
    <rect x="200" y="490" width="400" height="80" fill="#f5f5f5" stroke="#999" stroke-width="1"/>
    
    <!-- 軸ラベル -->
    <text x="180" y="530" font-size="12" fill="#666">速度</text>
    <text x="250" y="585" font-size="12" fill="#666">開始</text>
    <text x="560" y="585" font-size="12" fill="#666">終了</text>
    
    <!-- easeカーブ -->
    <path d="M 200 550 Q 300 490 400 520 T 600 550" 
          stroke="#ff6f00" stroke-width="3" fill="none"/>
    
    <!-- カーブの説明 -->
    <text x="300" y="510" font-size="11" fill="#ff6f00">ゆっくり</text>
    <text x="390" y="505" font-size="11" fill="#ff6f00">速い</text>
    <text x="520" y="530" font-size="11" fill="#ff6f00">ゆっくり</text>
  </g>
  
  <!-- 矢印マーカー定義 -->
  <defs>
    <marker id="arrowhead" markerWidth="10" markerHeight="10" refX="9" refY="3" orient="auto">
      <polygon points="0 0, 10 3, 0 6" fill="#666"/>
    </marker>
    <marker id="arrowhead-red" markerWidth="10" markerHeight="10" refX="9" refY="3" orient="auto">
      <polygon points="0 0, 10 3, 0 6" fill="#d32f2f"/>
    </marker>
  </defs>
</svg>