<svg width="100%" viewBox="0 0 680 680" role="img" xmlns="http://www.w3.org/2000/svg">
<title>Geometric bloom</title>
<desc>回転する幾何学的な花のSVGアート</desc>
<style>
  .petal { opacity: 0.82; }
</style>

<rect width="680" height="680" fill="#0f0f1a"/>

<g transform="translate(340,340)">

  <g transform="rotate(0)">  <ellipse class="petal" cx="0" cy="-110" rx="28" ry="80" fill="#6ee7f7"/></g>
  <g transform="rotate(30)"> <ellipse class="petal" cx="0" cy="-110" rx="28" ry="80" fill="#7dd3fc"/></g>
  <g transform="rotate(60)"> <ellipse class="petal" cx="0" cy="-110" rx="28" ry="80" fill="#93c5fd"/></g>
  <g transform="rotate(90)"> <ellipse class="petal" cx="0" cy="-110" rx="28" ry="80" fill="#a5b4fc"/></g>
  <g transform="rotate(120)"><ellipse class="petal" cx="0" cy="-110" rx="28" ry="80" fill="#c4b5fd"/></g>
  <g transform="rotate(150)"><ellipse class="petal" cx="0" cy="-110" rx="28" ry="80" fill="#e879f9"/></g>
  <g transform="rotate(180)"><ellipse class="petal" cx="0" cy="-110" rx="28" ry="80" fill="#f472b6"/></g>
  <g transform="rotate(210)"><ellipse class="petal" cx="0" cy="-110" rx="28" ry="80" fill="#fb7185"/></g>
  <g transform="rotate(240)"><ellipse class="petal" cx="0" cy="-110" rx="28" ry="80" fill="#fda4af"/></g>
  <g transform="rotate(270)"><ellipse class="petal" cx="0" cy="-110" rx="28" ry="80" fill="#fcd34d"/></g>
  <g transform="rotate(300)"><ellipse class="petal" cx="0" cy="-110" rx="28" ry="80" fill="#6ee7b7"/></g>
  <g transform="rotate(330)"><ellipse class="petal" cx="0" cy="-110" rx="28" ry="80" fill="#34d399"/></g>

  <g transform="rotate(15)">  <ellipse class="petal" cx="0" cy="-65" rx="16" ry="48" fill="#fff" opacity="0.15"/></g>
  <g transform="rotate(45)">  <ellipse class="petal" cx="0" cy="-65" rx="16" ry="48" fill="#fff" opacity="0.15"/></g>
  <g transform="rotate(75)">  <ellipse class="petal" cx="0" cy="-65" rx="16" ry="48" fill="#fff" opacity="0.15"/></g>
  <g transform="rotate(105)"> <ellipse class="petal" cx="0" cy="-65" rx="16" ry="48" fill="#fff" opacity="0.15"/></g>
  <g transform="rotate(135)"> <ellipse class="petal" cx="0" cy="-65" rx="16" ry="48" fill="#fff" opacity="0.15"/></g>
  <g transform="rotate(165)"> <ellipse class="petal" cx="0" cy="-65" rx="16" ry="48" fill="#fff" opacity="0.15"/></g>
  <g transform="rotate(195)"> <ellipse class="petal" cx="0" cy="-65" rx="16" ry="48" fill="#fff" opacity="0.15"/></g>
  <g transform="rotate(225)"> <ellipse class="petal" cx="0" cy="-65" rx="16" ry="48" fill="#fff" opacity="0.15"/></g>
  <g transform="rotate(255)"> <ellipse class="petal" cx="0" cy="-65" rx="16" ry="48" fill="#fff" opacity="0.15"/></g>
  <g transform="rotate(285)"> <ellipse class="petal" cx="0" cy="-65" rx="16" ry="48" fill="#fff" opacity="0.15"/></g>
  <g transform="rotate(315)"> <ellipse class="petal" cx="0" cy="-65" rx="16" ry="48" fill="#fff" opacity="0.15"/></g>
  <g transform="rotate(345)"> <ellipse class="petal" cx="0" cy="-65" rx="16" ry="48" fill="#fff" opacity="0.15"/></g>

  <circle r="200" fill="none" stroke="#ffffff18" stroke-width="0.5"/>
  <circle r="150" fill="none" stroke="#ffffff18" stroke-width="0.5"/>
  <circle r="100" fill="none" stroke="#ffffff18" stroke-width="0.5"/>

  <polygon points="0,-180 156,90 -156,90" fill="none" stroke="#6ee7f760" stroke-width="1"/>
  <polygon points="0,180 156,-90 -156,-90" fill="none" stroke="#f472b660" stroke-width="1"/>
  <polygon points="0,-150 130,75 -130,75" fill="none" stroke="#fcd34d40" stroke-width="0.5"/>
  <polygon points="0,150 130,-75 -130,-75" fill="none" stroke="#c4b5fd40" stroke-width="0.5"/>

  <circle r="38" fill="#1e1b4b" stroke="#a5b4fc" stroke-width="1.5"/>
  <circle r="24" fill="#312e81" stroke="#6ee7f7" stroke-width="1"/>
  <circle r="10" fill="#6ee7f7"/>

</g>

<circle cx="340" cy="340" r="320" fill="none" stroke="#ffffff08" stroke-width="40"/>
</svg>