<svg xmlns="http://www.w3.org/2000/svg" viewBox="0 0 1000 820" width="1000" height="820">
  <rect width="1000" height="820" fill="#f6f4f0"/>

  <rect x="0" y="0" width="1000" height="50" fill="#1c1e21" />
  
  <rect x="20" y="15" width="20" height="20" fill="none" stroke="#00d873" stroke-width="3" stroke-dasharray="4,4" />
  <text x="50" y="30" fill="#00d873" font-family="sans-serif" font-size="14" font-weight="bold">grid (全体カラム分割)</text>
  
  <rect x="220" y="15" width="20" height="20" fill="none" stroke="#3c8bf7" stroke-width="3" />
  <text x="250" y="30" fill="#3c8bf7" font-family="sans-serif" font-size="14" font-weight="bold">flex (row: 横並び専用)</text>
  
  <rect x="440" y="15" width="20" height="20" fill="none" stroke="#f2711c" stroke-width="3" />
  <text x="470" y="30" fill="#f2711c" font-family="sans-serif" font-size="14" font-weight="bold">block (通常ブロック配置 + margin)</text>

  <rect x="20" y="80" width="960" height="710" fill="none" stroke="#00d873" stroke-width="3" stroke-dasharray="8,8" />
  <text x="30" y="100" fill="#00d873" font-family="monospace" font-size="12">main [display: grid; grid-template-columns: 1fr 1fr; gap: 40px;]</text>

  <g id="left-column">
    <rect x="40" y="120" width="440" height="650" fill="none" stroke="#f2711c" stroke-width="2" />
    <text x="45" y="135" fill="#f2711c" font-family="monospace" font-size="11">section [block layout: margin-bottomで縦積み]</text>

    <rect x="60" y="150" width="400" height="70" fill="none" stroke="#f2711c" stroke-width="1" stroke-dasharray="2,2"/>
    <text x="65" y="165" fill="#f2711c" font-family="monospace" font-size="10">header [block layout: p + h2 + margin-bottom]</text>
    <text x="65" y="185" fill="#888" font-family="sans-serif" font-size="12">Information</text>
    <text x="65" y="210" fill="#5c4a40" font-family="serif" font-size="22" font-weight="bold" letter-spacing="2">お知らせ</text>

    <rect x="60" y="240" width="400" height="110" fill="none" stroke="#3c8bf7" stroke-width="2" />
    <text x="65" y="255" fill="#3c8bf7" font-family="monospace" font-size="10">a.card [display: flex; gap: 24px; border-bottom]</text>
    
    <rect x="65" y="265" width="105" height="75" fill="#e8e2da" stroke="#f2711c" stroke-width="1"/>
    <text x="70" y="280" fill="#f2711c" font-family="monospace" font-size="10">img</text>
    <text x="70" y="295" fill="#f2711c" font-family="monospace" font-size="9">[aspect-ratio: 4/3]</text>
    <text x="70" y="310" fill="#f2711c" font-family="monospace" font-size="9">[object-fit: cover]</text>
    
    <rect x="190" y="265" width="260" height="75" fill="none" stroke="#f2711c" stroke-width="1" stroke-dasharray="2,2"/>
    <text x="195" y="280" fill="#f2711c" font-family="monospace" font-size="10">div [block layout]</text>
    <line x1="195" y1="295" x2="280" y2="295" stroke="#aaa" stroke-width="4" />
    <line x1="195" y1="320" x2="350" y2="320" stroke="#5c4a40" stroke-width="6" />

    <rect x="60" y="370" width="400" height="110" fill="none" stroke="#3c8bf7" stroke-width="2" />
    <text x="65" y="385" fill="#3c8bf7" font-family="monospace" font-size="10">a.card [display: flex; gap: 24px; border-bottom]</text>
    <rect x="65" y="395" width="105" height="75" fill="#e8e2da" stroke="#f2711c" stroke-width="1"/>
    <rect x="190" y="395" width="260" height="75" fill="none" stroke="#f2711c" stroke-width="1" stroke-dasharray="2,2"/>
    <text x="195" y="410" fill="#f2711c" font-family="monospace" font-size="10">div [block layout]</text>
    <line x1="195" y1="425" x2="280" y2="425" stroke="#aaa" stroke-width="4" />
    <line x1="195" y1="450" x2="380" y2="450" stroke="#5c4a40" stroke-width="6" />

    <rect x="60" y="500" width="400" height="110" fill="none" stroke="#3c8bf7" stroke-width="2" />
    <text x="65" y="515" fill="#3c8bf7" font-family="monospace" font-size="10">a.card [display: flex; gap: 24px; border-bottom]</text>
    <rect x="65" y="525" width="105" height="75" fill="#fff" stroke="#f2711c" stroke-width="1"/>
    <path d="M 80 570 L 100 540 L 130 550 L 150 580 Z" fill="#b0c4de" opacity="0.5"/> <rect x="190" y="525" width="260" height="75" fill="none" stroke="#f2711c" stroke-width="1" stroke-dasharray="2,2"/>
    <text x="195" y="540" fill="#f2711c" font-family="monospace" font-size="10">div [block layout]</text>
    <line x1="195" y1="555" x2="280" y2="555" stroke="#aaa" stroke-width="4" />
    <line x1="195" y1="580" x2="400" y2="580" stroke="#5c4a40" stroke-width="6" />

    <rect x="60" y="660" width="400" height="50" fill="none" stroke="#3c8bf7" stroke-width="2" />
    <text x="65" y="675" fill="#3c8bf7" font-family="monospace" font-size="10">a.btn [display: flex; justify-content: flex-end; align-items: center]</text>
    <circle cx="380" cy="690" r="10" fill="none" stroke="#d5c8bb" stroke-width="1"/>
    <path d="M 377 690 L 383 690 M 380 687 L 383 690 L 380 693" fill="none" stroke="#d5c8bb" stroke-width="1"/>
    <text x="400" y="694" fill="#333" font-family="sans-serif" font-size="12">一覧を見る</text>
  </g>

  <g id="right-column">
    <rect x="520" y="120" width="440" height="650" fill="none" stroke="#f2711c" stroke-width="2" />
    <text x="525" y="135" fill="#f2711c" font-family="monospace" font-size="11">section [block layout: margin-bottomで縦積み]</text>

    <rect x="540" y="150" width="400" height="70" fill="none" stroke="#f2711c" stroke-width="1" stroke-dasharray="2,2"/>
    <text x="545" y="165" fill="#f2711c" font-family="monospace" font-size="10">header [block layout: p + h2 + margin-bottom]</text>
    <text x="545" y="185" fill="#888" font-family="sans-serif" font-size="12">Blog</text>
    <text x="545" y="210" fill="#5c4a40" font-family="serif" font-size="22" font-weight="bold" letter-spacing="2">ブログ</text>

    <rect x="540" y="240" width="400" height="110" fill="none" stroke="#3c8bf7" stroke-width="2" />
    <text x="545" y="255" fill="#3c8bf7" font-family="monospace" font-size="10">a.card [display: flex; gap: 24px; border-bottom]</text>
    
    <rect x="545" y="265" width="130" height="75" fill="#d1dbe5" stroke="#f2711c" stroke-width="1"/>
    <text x="550" y="280" fill="#f2711c" font-family="monospace" font-size="10">img</text>
    <text x="550" y="295" fill="#f2711c" font-family="monospace" font-size="9">[aspect-ratio: 16/9]</text>
    <text x="550" y="310" fill="#f2711c" font-family="monospace" font-size="9">[object-fit: cover]</text>
    
    <rect x="690" y="265" width="240" height="75" fill="none" stroke="#f2711c" stroke-width="1" stroke-dasharray="2,2"/>
    <text x="695" y="280" fill="#f2711c" font-family="monospace" font-size="10">div [block layout]</text>
    <line x1="695" y1="295" x2="780" y2="295" stroke="#aaa" stroke-width="4" />
    <line x1="695" y1="320" x2="850" y2="320" stroke="#5c4a40" stroke-width="6" />

    <rect x="540" y="370" width="400" height="110" fill="none" stroke="#3c8bf7" stroke-width="2" />
    <text x="545" y="385" fill="#3c8bf7" font-family="monospace" font-size="10">a.card [display: flex; gap: 24px; border-bottom]</text>
    <rect x="545" y="395" width="130" height="75" fill="#d1dbe5" stroke="#f2711c" stroke-width="1"/>
    <rect x="690" y="395" width="240" height="75" fill="none" stroke="#f2711c" stroke-width="1" stroke-dasharray="2,2"/>
    <text x="695" y="410" fill="#f2711c" font-family="monospace" font-size="10">div [block layout]</text>
    <line x1="695" y1="425" x2="780" y2="425" stroke="#aaa" stroke-width="4" />
    <line x1="695" y1="450" x2="880" y2="450" stroke="#5c4a40" stroke-width="6" />

    <rect x="540" y="500" width="400" height="110" fill="none" stroke="#3c8bf7" stroke-width="2" />
    <text x="545" y="515" fill="#3c8bf7" font-family="monospace" font-size="10">a.card [display: flex; gap: 24px; border-bottom]</text>
    <rect x="545" y="525" width="130" height="75" fill="#eaddd1" stroke="#f2711c" stroke-width="1"/>
    <rect x="690" y="525" width="240" height="75" fill="none" stroke="#f2711c" stroke-width="1" stroke-dasharray="2,2"/>
    <text x="695" y="540" fill="#f2711c" font-family="monospace" font-size="10">div [block layout]</text>
    <line x1="695" y1="555" x2="780" y2="555" stroke="#aaa" stroke-width="4" />
    <line x1="695" y1="580" x2="820" y2="580" stroke="#5c4a40" stroke-width="6" />

    <rect x="540" y="660" width="400" height="50" fill="none" stroke="#3c8bf7" stroke-width="2" />
    <text x="545" y="675" fill="#3c8bf7" font-family="monospace" font-size="10">a.btn [display: flex; justify-content: flex-end; align-items: center]</text>
    <circle cx="880" cy="690" r="10" fill="none" stroke="#d5c8bb" stroke-width="1"/>
    <path d="M 877 690 L 883 690 M 880 687 L 883 690 L 880 693" fill="none" stroke="#d5c8bb" stroke-width="1"/>
    <text x="900" y="694" fill="#333" font-family="sans-serif" font-size="12">一覧を見る</text>
  </g>

</svg>