<svg viewBox="0 0 400 300" xmlns="http://www.w3.org/2000/svg">
  <!-- 背景 -->
  <rect width="400" height="300" fill="#f0f0f0"/>
  
  <!-- 側面図（レイヤー構造） -->
  <g transform="translate(20, 50)">
    <!-- z-content: 1 (最背面) -->
    <rect x="0" y="120" width="150" height="40" fill="#e3f2fd" stroke="#1976d2" stroke-width="2"/>
    <text x="75" y="145" text-anchor="middle" font-size="12" font-family="sans-serif">
      z-content: 1
    </text>
    
    <!-- z-header: 100 -->
    <rect x="10" y="80" width="150" height="40" fill="#fff3e0" stroke="#f57c00" stroke-width="2"/>
    <text x="85" y="105" text-anchor="middle" font-size="12" font-family="sans-serif">
      z-header: 100
    </text>
    
    <!-- z-overlay: 200 -->
    <rect x="20" y="40" width="150" height="40" fill="#f3e5f5" stroke="#7b1fa2" stroke-width="2"/>
    <text x="95" y="65" text-anchor="middle" font-size="12" font-family="sans-serif">
      z-overlay: 200
    </text>
    
    <!-- z-button: 300 (最前面) -->
    <rect x="30" y="0" width="150" height="40" fill="#ffebee" stroke="#c62828" stroke-width="2"/>
    <text x="105" y="25" text-anchor="middle" font-size="12" font-family="sans-serif">
      z-button: 300
    </text>
    
    <!-- 矢印 -->
    <path d="M 190 140 L 230 80" stroke="#666" stroke-width="2" marker-end="url(#arrowhead)"/>
    <text x="235" y="75" font-size="14" font-weight="bold" fill="#666">手前</text>
    <text x="235" y="145" font-size="14" fill="#999">奥</text>
  </g>
  
  <!-- 正面図（ユーザー視点） -->
  <g transform="translate(220, 50)">
    <text x="60" y="-10" font-size="14" font-weight="bold">ユーザーから見た重なり</text>
    
    <!-- 全レイヤーを重ねて表示 -->
    <rect x="0" y="0" width="140" height="140" fill="#e3f2fd" stroke="#1976d2" stroke-width="2" opacity="0.3"/>
    <rect x="10" y="10" width="140" height="140" fill="#fff3e0" stroke="#f57c00" stroke-width="2" opacity="0.5"/>
    <rect x="20" y="20" width="140" height="140" fill="#f3e5f5" stroke="#7b1fa2" stroke-width="2" opacity="0.7"/>
    <rect x="30" y="30" width="80" height="30" fill="#ffebee" stroke="#c62828" stroke-width="2"/>
    
    <text x="70" y="48" text-anchor="middle" font-size="11" font-weight="bold">ハンバーガー</text>
  </g>
  
  <!-- 矢印マーカー定義 -->
  <defs>
    <marker id="arrowhead" markerWidth="10" markerHeight="10" refX="9" refY="3" orient="auto">
      <polygon points="0 0, 10 3, 0 6" fill="#666"/>
    </marker>
  </defs>
  
  <!-- 説明 -->
  <text x="200" y="260" text-anchor="middle" font-size="13" fill="#333" font-family="sans-serif">
    数値が大きいほど手前に表示される
  </text>
</svg>